<svg xmlns="http://www.w3.org/2000/svg" xmlns:xlink="http://www.w3.org/1999/xlink" viewBox="0,0,256,256" width="32px" height="32px" fill-rule="nonzero"><g fill-opacity="0" fill="#ffffff" fill-rule="nonzero" stroke="none" stroke-width="1" stroke-linecap="butt" stroke-linejoin="miter" stroke-miterlimit="10" stroke-dasharray="" stroke-dashoffset="0" font-family="none" font-weight="none" font-size="none" text-anchor="none" style="mix-blend-mode: normal"><g transform="scale(8,8)"><path d="M17.9375,3.96875c-0.01172,0.01172 -0.01953,0.01953 -0.03125,0.03125c-0.01953,0 -0.04297,0 -0.0625,0c-0.01172,0 -0.01953,0 -0.03125,0c-0.03125,0.00781 -0.0625,0.01953 -0.09375,0.03125c-0.03125,0.00781 -0.0625,0.01953 -0.09375,0.03125c-0.03125,0.00781 -0.0625,0.01953 -0.09375,0.03125c-0.03125,0.00781 -0.0625,0.01953 -0.09375,0.03125l-0.0625,0.03125c-0.01172,0.01172 -0.01953,0.01953 -0.03125,0.03125l-5.09375,1.875l-0.1875,0.0625l-0.125,0.125l-4.59375,4l-0.125,0.09375l-0.0625,0.15625l-2.84375,4.75c-0.10937,0.10547 -0.19531,0.23438 -0.25,0.375l-0.0625,0.09375v0.09375c-0.00391,0.04297 -0.00391,0.08203 0,0.125v0.0625c-0.00391,0.04297 -0.00391,0.08203 0,0.125v6.40625c0.06641,2.40234 1.07813,3.94531 2.3125,4.6875c1.15625,0.69531 2.35938,0.76172 3.0625,0.78125c0.04688,0 0.11328,0 0.15625,0c0.04297,0.00391 0.08203,0.00391 0.125,0c0.04297,0.00391 0.08203,0.00391 0.125,0c0.07422,0.00781 0.14453,0.00781 0.21875,0h0.5c0.29297,0.15625 0.64453,0.15625 0.9375,0h15.46875c0.07422,0.00781 0.14453,0.00781 0.21875,0h0.875v-0.84375c0.00391,-0.05078 0.00391,-0.10547 0,-0.15625v-0.03125c0.00781,-0.07422 0.00781,-0.14453 0,-0.21875v-13.6875c0.00781,-0.0625 0.00781,-0.125 0,-0.1875v-3.5c0,-0.03125 0,-0.0625 0,-0.09375c0,-0.01172 0,-0.01953 0,-0.03125c0.00391,-0.55078 -0.04687,-1.10937 -0.1875,-1.65625c-0.42578,-1.66406 -1.81641,-3.19531 -4.15625,-3.59375h-5.3125c-0.13281,-0.03906 -0.26953,-0.04687 -0.40625,-0.03125zM20.75,6h2.5625c1.74219,0.29688 2.29297,1.03516 2.5625,2.09375c0.08203,0.32422 0.12891,0.6875 0.125,1.0625c-0.00391,0.05078 -0.00391,0.10547 0,0.15625c-0.01172,0.32813 -0.07031,0.65625 -0.125,1zM17.78125,6.15625l1.25,1.03125l-1.5625,4.90625l-4.96875,4.96875l-5.3125,0.875l-1.0625,-1.90625l2.625,-4.34375l4.34375,-3.8125zM20.6875,8.59375l4.125,3.40625h-5.1875zM19.4375,14h5.21875c-0.86719,1.76172 -2.04297,3.36328 -3.375,4.90625zM17.625,14.8125l1.6875,4.5l-4.5,-1.6875zM26,15.6875v8.875l-3.75,-3.75c1.41016,-1.57031 2.71484,-3.25 3.75,-5.125zM11.71875,19.25l-1.09375,4.96875l-2.40625,-4.40625zM13.71875,19.34375l5.21875,1.9375c-1.98828,1.76953 -4.10547,3.26953 -6.5625,4.09375zM6,19.90625l3.3125,6.0625c-0.61719,-0.03125 -1.375,-0.10937 -1.96875,-0.46875c-0.67969,-0.41016 -1.28125,-1.10937 -1.34375,-3zM20.84375,22.28125l3.71875,3.71875h-8.65625c1.82031,-1.02734 3.4375,-2.33594 4.9375,-3.71875z"></path></g></g></svg>